<?xml version="1.0" encoding="UTF-8"?>
<svg xmlns="http://www.w3.org/2000/svg" width="1200" height="1200" viewBox="0 0 1200 1200" role="img" aria-labelledby="title-u310E description-u310E">
  <title id="title-u310E">Bopomofo ㄎ (k), card 10 of 37</title>
  <desc id="description-u310E">Static Bopomofo reference card. Unicode U+310E; Pinyin k; IPA kʰ; category initial.</desc>
  <rect width="1200" height="1200" fill="#F7F1EC"/>
  <rect x="30" y="30" width="1140" height="1140" rx="72" fill="#FFFDFC" stroke="#B85C4A" stroke-width="4"/>
  <rect x="96" y="78" width="1008" height="12" rx="6" fill="#B85C4A"/>
  <circle cx="600" cy="525" r="382" fill="#F7F1EC"/>
  <circle cx="600" cy="525" r="346" fill="none" stroke="#B85C4A" stroke-width="3" opacity="0.42"/>
  <path d="M82.375 761.476H921.9V648.822H82.375ZM689.822 474.776H807.101Q807.101 474.776 806.601 465.475Q806.101 456.175 805.376 444.287Q804.651 432.399 802.926 425.049Q787.627 295.1 770.927 209.4Q754.227 123.7 734.715 74.013Q715.203 24.326 689.378 0.326Q664.677 -23.55 636.577 -32.625Q608.476 -41.7 567.25 -44.876Q535.275 -47.051 482.65 -46.138Q430.025 -45.226 372.575 -42.401Q370.849 -18 359.061 13.564Q347.273 45.127 329.223 68.078Q370.948 64.803 411.073 63.166Q451.198 61.528 483.911 60.891Q516.624 60.253 534.249 60.253Q553.799 60.253 567.386 62.253Q580.974 64.253 592.424 72.253Q613.349 88.178 630.186 134.328Q647.023 180.478 661.773 261.102Q676.522 341.727 689.097 458.625ZM251.874 353.122V444.025L307.25 474.776H733.373L732.648 367.922H344.124Q313.1 367.922 285.987 364.109Q258.874 360.297 251.874 353.122ZM251.874 353.122Q248.699 365.822 241.624 386.46Q234.548 407.098 226.748 429.549Q218.948 452 211.873 467.601Q225.773 471.776 238.948 484.051Q252.123 496.326 265.848 515.326Q275.848 527.601 294.81 560.063Q313.773 592.525 335.373 635.9Q356.972 679.275 372.797 725.1L493.977 674.848Q471.702 629.198 443.164 582.148Q414.627 535.098 383.501 492.186Q352.376 449.273 322.201 415.724V412.823Q322.201 412.823 311.538 406.836Q300.876 400.848 287.038 391.185Q273.2 381.522 262.537 371.497Q251.874 361.472 251.874 353.122Z" transform="matrix(0.678955 0 0 -0.678955 259.071052 767.749626)" fill="#30283D"/>
  <text x="600" y="142" text-anchor="middle" fill="#B85C4A" font-size="38" font-weight="700" letter-spacing="8">INITIAL</text>
  <text x="600" y="948" text-anchor="middle" fill="#30283D" font-size="34" font-weight="700" letter-spacing="3">CARD 10 / 37 | U+310E</text>
  <text x="600" y="1012" text-anchor="middle" fill="#726878" font-size="30" font-weight="600">PINYIN k | IPA k U+02B0</text>
  <text x="600" y="1094" text-anchor="middle" fill="#B85C4A" font-size="24" font-weight="700" letter-spacing="4">BOPOMOFO OPEN REFERENCE</text>
</svg>
