<?xml version="1.0" encoding="UTF-8"?>
<svg xmlns="http://www.w3.org/2000/svg" width="1200" height="1200" viewBox="0 0 1200 1200" role="img" aria-labelledby="title-u311A description-u311A">
  <title id="title-u311A">Bopomofo ㄚ (a), card 25 of 37</title>
  <desc id="description-u311A">Static Bopomofo reference card. Unicode U+311A; Pinyin a; IPA a; category final.</desc>
  <rect width="1200" height="1200" fill="#F1F0F7"/>
  <rect x="30" y="30" width="1140" height="1140" rx="72" fill="#FEFDFF" stroke="#6D5B9A" stroke-width="4"/>
  <rect x="96" y="78" width="1008" height="12" rx="6" fill="#6D5B9A"/>
  <circle cx="600" cy="525" r="382" fill="#F1F0F7"/>
  <circle cx="600" cy="525" r="346" fill="none" stroke="#6D5B9A" stroke-width="3" opacity="0.42"/>
  <path d="M110.823 724.449 196.452 800.902Q245.352 760.627 297.164 716.077Q348.977 671.527 399.152 626.477Q449.327 581.427 492.365 539.927Q535.402 498.427 566.028 465.702L477.224 369.023Q447.499 403.473 404.687 447.561Q361.874 491.648 311.974 539.736Q262.074 587.823 210.036 635.411Q157.999 682.999 110.823 724.449ZM793.548 804.352 895.777 730.524Q840.527 669.724 776.677 607.586Q712.826 545.449 648.289 489.486Q583.751 433.524 526.851 390.249L433.972 464.527Q477.148 495.352 525.185 535.177Q573.223 575.001 621.398 620.414Q669.573 665.826 713.748 712.914Q757.923 760.001 793.548 804.352ZM442.498 480.502H563.127V-30.275H442.498Z" transform="matrix(0.68294 0 0 -0.68294 256.276397 789.323997)" fill="#302D4E"/>
  <text x="600" y="142" text-anchor="middle" fill="#6D5B9A" font-size="38" font-weight="700" letter-spacing="8">FINAL</text>
  <text x="600" y="948" text-anchor="middle" fill="#302D4E" font-size="34" font-weight="700" letter-spacing="3">CARD 25 / 37 | U+311A</text>
  <text x="600" y="1012" text-anchor="middle" fill="#6D6980" font-size="30" font-weight="600">PINYIN a | IPA a</text>
  <text x="600" y="1094" text-anchor="middle" fill="#6D5B9A" font-size="24" font-weight="700" letter-spacing="4">BOPOMOFO OPEN REFERENCE</text>
</svg>
