<?xml version="1.0" encoding="UTF-8"?>
<svg xmlns="http://www.w3.org/2000/svg" width="1200" height="1200" viewBox="0 0 1200 1200" role="img" aria-labelledby="title-u3111 description-u3111">
  <title id="title-u3111">Bopomofo ㄑ (q), card 13 of 37</title>
  <desc id="description-u3111">Static Bopomofo reference card. Unicode U+3111; Pinyin q; IPA tɕʰ; category initial.</desc>
  <rect width="1200" height="1200" fill="#F7F1EC"/>
  <rect x="30" y="30" width="1140" height="1140" rx="72" fill="#FFFDFC" stroke="#B85C4A" stroke-width="4"/>
  <rect x="96" y="78" width="1008" height="12" rx="6" fill="#B85C4A"/>
  <circle cx="600" cy="525" r="382" fill="#F7F1EC"/>
  <circle cx="600" cy="525" r="346" fill="none" stroke="#B85C4A" stroke-width="3" opacity="0.42"/>
  <path d="M601.922 822.525 721.452 769.999Q688.177 723.398 647.24 676.573Q606.302 629.748 561.716 583.586Q517.129 537.424 471.18 492.487Q425.23 447.55 382.381 404.45Q436.405 355.625 490.355 303.013Q544.304 250.401 594.391 197.376Q644.478 144.352 686.465 95.289Q728.452 46.227 758.276 4.777L638.847 -64.075Q609.472 -17.725 566.035 38.412Q522.598 94.55 468.473 156.1Q414.349 217.65 353.774 280.65Q293.2 343.65 230.275 403.725Q281.475 454.175 334.774 510.675Q388.074 567.175 438.373 623.313Q488.673 679.45 530.835 730.675Q572.997 781.9 601.922 822.525Z" transform="matrix(0.642905 0 0 -0.642905 282.227572 768.805831)" fill="#30283D"/>
  <text x="600" y="142" text-anchor="middle" fill="#B85C4A" font-size="38" font-weight="700" letter-spacing="8">INITIAL</text>
  <text x="600" y="948" text-anchor="middle" fill="#30283D" font-size="34" font-weight="700" letter-spacing="3">CARD 13 / 37 | U+3111</text>
  <text x="600" y="1012" text-anchor="middle" fill="#726878" font-size="30" font-weight="600">PINYIN q | IPA t U+0255 U+02B0</text>
  <text x="600" y="1094" text-anchor="middle" fill="#B85C4A" font-size="24" font-weight="700" letter-spacing="4">BOPOMOFO OPEN REFERENCE</text>
</svg>
