<?xml version="1.0" encoding="UTF-8"?>
<svg xmlns="http://www.w3.org/2000/svg" width="1200" height="1200" viewBox="0 0 1200 1200" role="img" aria-labelledby="title-u3119 description-u3119">
  <title id="title-u3119">Bopomofo ㄙ (s), card 21 of 37</title>
  <desc id="description-u3119">Static Bopomofo reference card. Unicode U+3119; Pinyin s; IPA s; category initial.</desc>
  <rect width="1200" height="1200" fill="#F7F1EC"/>
  <rect x="30" y="30" width="1140" height="1140" rx="72" fill="#FFFDFC" stroke="#B85C4A" stroke-width="4"/>
  <rect x="96" y="78" width="1008" height="12" rx="6" fill="#B85C4A"/>
  <circle cx="600" cy="525" r="382" fill="#F7F1EC"/>
  <circle cx="600" cy="525" r="346" fill="none" stroke="#B85C4A" stroke-width="3" opacity="0.42"/>
  <path d="M612.724 379.126 726.453 420.127Q763.653 354.327 801.765 279.889Q839.877 205.452 872.852 135.014Q905.826 64.576 926.651 8.326L804.671 -42.926Q791.022 -0.576 769.459 51.862Q747.897 104.3 721.335 160.875Q694.773 217.45 666.711 273.75Q638.648 330.051 612.724 379.126ZM143.625 -12.702Q140.45 -0.452 132.287 21.137Q124.124 42.725 114.737 66.126Q105.349 89.527 96.548 105.852Q121.424 114.478 142.161 144.19Q162.899 173.902 191.449 224.826Q203.449 244.651 224.273 286.339Q245.098 328.026 270.836 385.988Q296.573 443.951 323.36 512.413Q350.148 580.876 375.71 655.063Q401.272 729.25 420.747 803.075L552.252 768.599Q510.052 636.424 457.177 508.862Q404.302 381.3 346.34 267.637Q288.378 153.975 231.453 61.326V58.151Q231.453 58.151 218.253 50.85Q205.052 43.55 187.677 31.712Q170.301 19.874 156.963 8.261Q143.625 -3.352 143.625 -12.702ZM143.625 -12.702 137.825 88.977 210.877 132.628 782.2 208.952Q787.825 184.101 797.213 152.675Q806.601 121.249 813.676 102.473Q677.551 81.648 577.902 66.598Q478.252 51.548 408.977 41.273Q339.702 30.999 293.664 23.136Q247.627 15.273 219.551 9.548Q191.476 3.823 174.313 -1.352Q157.151 -6.527 143.625 -12.702Z" transform="matrix(0.673758 0 0 -0.673758 255.305709 781.078261)" fill="#30283D"/>
  <text x="600" y="142" text-anchor="middle" fill="#B85C4A" font-size="38" font-weight="700" letter-spacing="8">INITIAL</text>
  <text x="600" y="948" text-anchor="middle" fill="#30283D" font-size="34" font-weight="700" letter-spacing="3">CARD 21 / 37 | U+3119</text>
  <text x="600" y="1012" text-anchor="middle" fill="#726878" font-size="30" font-weight="600">PINYIN s | IPA s</text>
  <text x="600" y="1094" text-anchor="middle" fill="#B85C4A" font-size="24" font-weight="700" letter-spacing="4">BOPOMOFO OPEN REFERENCE</text>
</svg>
